HIERARCHY
ROOT Hips
{
	OFFSET -0.001795 -0.223333 0.028219
	CHANNELS 6 Xposition Yposition Zposition Zrotation Yrotation Xrotation 
	JOINT LeftUpLeg
	{
		OFFSET 0.069520 -0.091406 -0.006815
		CHANNELS 3 Zrotation Yrotation Xrotation
		JOINT LeftLeg
		{
			OFFSET 0.034277 -0.375199 -0.004496
			CHANNELS 3 Zrotation Yrotation Xrotation
			JOINT LeftFoot
			{
				OFFSET -0.013596 -0.397961 -0.043693
				CHANNELS 3 Zrotation Yrotation Xrotation
				JOINT LeftToe
				{
					OFFSET 0.026358 -0.055791 0.119288
					CHANNELS 3 Zrotation Yrotation Xrotation
					End Site
					{
						OFFSET 0.000000 0.000000 0.000000
					}
				}
			}
		}
	}
	JOINT RightUpLeg
	{
		OFFSET -0.067670 -0.090522 -0.004320
		CHANNELS 3 Zrotation Yrotation Xrotation
		JOINT RightLeg
		{
			OFFSET -0.038290 -0.382569 -0.008850
			CHANNELS 3 Zrotation Yrotation Xrotation
			JOINT RightFoot
			{
				OFFSET 0.015774 -0.398415 -0.042312
				CHANNELS 3 Zrotation Yrotation Xrotation
				JOINT RightToe
				{
					OFFSET -0.025372 -0.048144 0.123348
					CHANNELS 3 Zrotation Yrotation Xrotation
					End Site
					{
						OFFSET 0.000000 0.000000 0.000000
					}
				}
			}
		}
	}
	JOINT Spine
	{
		OFFSET -0.002533 0.108963 -0.026696
		CHANNELS 3 Zrotation Yrotation Xrotation
		JOINT Spine1
		{
			OFFSET 0.005487 0.135180 0.001092
			CHANNELS 3 Zrotation Yrotation Xrotation
			JOINT Spine2
			{
				OFFSET 0.001457 0.052922 0.025425
				CHANNELS 3 Zrotation Yrotation Xrotation
				JOINT Neck
				{
					OFFSET -0.002778 0.213870 -0.042857
					CHANNELS 3 Zrotation Yrotation Xrotation
					JOINT Head
					{
						OFFSET 0.005152 0.064970 0.051349
						CHANNELS 3 Zrotation Yrotation Xrotation
						End Site
						{
							OFFSET 0.000000 0.000000 0.000000
						}
					}
				}
				JOINT LeftShoulder
				{
					OFFSET 0.078845 0.121749 -0.034090
					CHANNELS 3 Zrotation Yrotation Xrotation
					JOINT LeftArm
					{
						OFFSET 0.090977 0.030469 -0.008868
						CHANNELS 3 Zrotation Yrotation Xrotation
						JOINT LeftForeArm
						{
							OFFSET 0.259612 -0.012772 -0.027456
							CHANNELS 3 Zrotation Yrotation Xrotation
							JOINT LeftHand
							{
								OFFSET 0.249234 0.008986 -0.001171
								CHANNELS 3 Zrotation Yrotation Xrotation
								End Site
								{
									OFFSET 0.000000 0.000000 0.000000
								}
							}
						}
					}
				}
				JOINT RightShoulder
				{
					OFFSET -0.081759 0.118833 -0.038615
					CHANNELS 3 Zrotation Yrotation Xrotation
					JOINT RightArm
					{
						OFFSET -0.096012 0.032551 -0.009143
						CHANNELS 3 Zrotation Yrotation Xrotation
						JOINT RightForeArm
						{
							OFFSET -0.253742 -0.013329 -0.021401
							CHANNELS 3 Zrotation Yrotation Xrotation
							JOINT RightHand
							{
								OFFSET -0.255298 0.007772 -0.005559
								CHANNELS 3 Zrotation Yrotation Xrotation
								End Site
								{
									OFFSET 0.000000 0.000000 0.000000
								}
							}
						}
					}
				}
			}
		}
	}
}
MOTION
Frames: 11
Frame Time: 0.050000
-0.211609 0.935315 -0.066418 2.903940 22.517969 26.882762 11.143604 -2.763683 -31.492435 0.073762 -0.043173 0.574082 3.465767 14.388233 16.433381 0.000000 0.000000 0.000000 -5.910261 -1.414411 -41.546721 0.207431 0.046785 8.759826 1.090382 0.286664 11.814697 0.000000 0.000000 0.000000 3.454049 -3.252085 22.464615 3.596731 -1.654958 -0.866667 -9.581906 6.483047 2.612670 16.661350 -5.933913 -18.706796 0.000000 0.000000 0.000000 -0.383202 -41.582850 14.007471 9.262853 -50.414412 -9.488401 39.754982 -32.160059 -10.724489 0.000000 0.000000 0.000000 0.065914 22.408339 10.695224 3.728122 34.079378 -0.901984 -35.371733 5.959685 0.587847 0.000000 0.000000 0.000000 
-0.206929 0.939422 -0.059103 2.998097 24.496441 23.548992 10.419890 -2.582835 -28.066330 -0.244187 -0.044997 1.047682 2.379415 12.284085 14.347176 0.000000 0.000000 0.000000 -5.937281 -1.211229 -36.967181 -0.616204 0.163729 10.082730 0.263662 -0.581194 9.254170 0.000000 0.000000 0.000000 3.890949 -2.908392 19.789224 2.254986 -0.859227 -2.683161 -9.982727 5.241841 3.246701 15.995498 -5.545391 -18.945912 0.000000 0.000000 0.000000 -0.979435 -37.643093 12.259343 5.600265 -50.557985 -7.791695 48.330844 -37.588889 -16.697830 0.000000 0.000000 0.000000 -0.217089 21.207828 9.810217 2.984286 34.003108 -0.948362 -40.922779 5.488931 1.042464 0.000000 0.000000 0.000000 
-0.199361 0.942199 -0.049564 2.812562 26.331654 20.787289 10.087237 -2.345409 -24.936123 -0.964085 -0.008442 1.118663 1.746984 10.808710 12.763935 0.000000 0.000000 0.000000 -5.840910 -0.983652 -33.005285 -1.169029 0.225319 10.948793 -0.568195 -1.895107 7.944327 0.000000 0.000000 0.000000 4.181247 -2.328411 16.046771 0.853726 -0.079835 -4.480364 -10.158800 5.449409 3.932554 14.894512 -4.942716 -18.543670 0.000000 0.000000 0.000000 -1.894855 -33.099522 10.171853 2.223151 -52.876354 -6.920398 59.045664 -42.812764 -25.334369 0.000000 0.000000 0.000000 -2.754122 17.725431 7.407188 7.428279 35.267675 0.389077 -48.734714 6.045683 1.793444 0.000000 0.000000 0.000000 
-0.189390 0.944603 -0.039104 2.910923 27.658117 18.056565 9.367240 -2.073994 -21.727665 -1.616815 0.013891 1.376938 0.846517 8.117696 9.922112 0.000000 0.000000 0.000000 -5.481636 -0.547359 -28.226132 -2.077778 0.394877 10.825112 -1.617437 -3.857750 5.997472 0.000000 0.000000 0.000000 4.321127 -1.789984 12.727792 -0.933580 0.744394 -5.647331 -10.087713 5.492295 3.861137 12.828637 -3.182691 -20.275299 0.000000 0.000000 0.000000 -1.953168 -27.426003 7.882051 -1.569460 -55.656047 -5.820249 70.631247 -45.707912 -34.743968 0.000000 0.000000 0.000000 -3.532584 15.075745 5.963682 11.740560 35.286680 1.578353 -56.758064 10.237520 0.840975 0.000000 0.000000 0.000000 
-0.178887 0.945073 -0.029712 2.749201 29.915184 15.827661 8.817320 -1.829104 -18.688052 -1.147886 -0.015812 1.212453 0.357346 6.389732 8.105026 0.000000 0.000000 0.000000 -5.387878 -0.338136 -24.045208 -2.130225 0.357997 10.505440 -3.061513 -6.922473 5.269764 0.000000 0.000000 0.000000 5.231862 -1.397347 9.026348 -2.015202 1.243846 -6.548438 -10.921308 6.500997 3.142493 12.736016 -3.336206 -18.625294 0.000000 0.000000 0.000000 -2.705680 -24.159188 6.330179 -4.429603 -58.582463 -5.200169 77.143372 -46.483016 -40.524363 0.000000 0.000000 0.000000 -3.742902 11.643822 4.483979 17.410131 34.871894 3.158941 -62.352682 15.320216 -0.803371 0.000000 0.000000 0.000000 
-0.169991 0.943476 -0.022905 2.845372 31.358139 14.119728 8.565850 -1.634729 -16.438072 -1.594066 -0.015464 1.648926 -0.357194 4.081048 6.365741 0.000000 0.000000 0.000000 -5.269318 -0.131528 -20.123524 -2.381056 0.411986 9.064855 -4.274475 -9.685237 4.986420 0.000000 0.000000 0.000000 5.457511 -0.973190 5.794157 -2.669794 1.554955 -7.323291 -11.585446 7.141743 2.373376 11.321930 -2.160366 -19.294956 0.000000 0.000000 0.000000 -1.976388 -21.280067 5.325522 -6.364645 -60.466047 -4.934020 83.102803 -41.778386 -41.311681 0.000000 0.000000 0.000000 -1.524625 8.936625 3.956918 21.760047 35.179406 4.310472 -67.176058 22.843954 -4.787788 0.000000 0.000000 0.000000 
-0.164094 0.941296 -0.018978 2.614320 32.510519 12.900059 8.114808 -1.515337 -15.036313 -0.581771 -0.101727 2.342906 -1.032883 2.308086 5.517312 0.000000 0.000000 0.000000 -5.071026 -0.052065 -18.296432 -2.105542 0.325806 9.125721 -4.817659 -10.913502 4.996393 0.000000 0.000000 0.000000 4.415243 -0.525454 2.979313 -2.761653 1.621221 -7.441281 -11.383637 7.272558 1.221876 10.945567 -2.142157 -18.315293 0.000000 0.000000 0.000000 -1.971493 -19.168186 4.571868 -6.634055 -62.873474 -5.323805 84.354839 -35.836979 -37.085490 0.000000 0.000000 0.000000 0.102063 6.462059 3.285153 27.139011 35.931336 6.095151 -70.163258 29.800524 -9.329278 0.000000 0.000000 0.000000 
-0.160942 0.939215 -0.017528 1.967995 33.430099 11.569738 8.333708 -1.512841 -14.944294 -0.599988 -0.208392 4.322496 -1.229835 0.563647 3.758761 0.000000 0.000000 0.000000 -4.553084 0.106804 -16.139078 -2.146419 0.336735 8.355734 -5.336264 -12.241353 4.662649 0.000000 0.000000 0.000000 3.389062 -0.264430 1.061200 -2.431273 1.512155 -7.125067 -11.474332 6.734524 -0.053543 10.073446 -1.374358 -19.354979 0.000000 0.000000 0.000000 -0.906409 -16.160266 3.938040 -5.818433 -65.763168 -6.542288 84.555287 -30.183444 -32.142679 0.000000 0.000000 0.000000 2.791025 3.920192 2.766310 31.376215 37.808889 7.902098 -73.888669 35.919296 -14.459787 0.000000 0.000000 0.000000 
-0.159567 0.937643 -0.018015 1.486223 32.485102 10.650459 8.467620 -1.430611 -14.336806 -0.518465 -0.261650 5.156764 -0.833588 0.133921 2.369267 0.000000 0.000000 0.000000 -3.970793 0.260917 -15.641553 -2.748269 0.472705 8.971727 -4.603117 -10.830839 3.711091 0.000000 0.000000 0.000000 2.704817 -0.145141 0.003734 -2.700785 1.607532 -7.053506 -10.938050 7.171086 -1.024475 9.604757 -1.284299 -18.787481 0.000000 0.000000 0.000000 -0.258249 -15.016893 3.795313 -1.150838 -66.510876 -9.570173 83.030903 -24.269451 -26.095321 0.000000 0.000000 0.000000 3.853697 3.150578 2.622237 33.263445 40.497990 9.542519 -76.862392 39.394925 -18.296088 0.000000 0.000000 0.000000 
-0.158329 0.936531 -0.019640 0.883079 31.701643 9.844633 8.875100 -1.399145 -14.198017 -0.876906 -0.342925 6.889845 -0.310558 0.180325 1.220828 0.000000 0.000000 0.000000 -3.400416 0.396601 -15.146499 -3.285945 0.606583 8.864872 -4.459810 -10.572055 3.613271 0.000000 0.000000 0.000000 2.639003 -0.081292 -1.047338 -3.060264 1.751260 -7.320349 -10.748477 7.982793 -1.527792 8.837913 -0.547168 -19.967820 0.000000 0.000000 0.000000 -0.017619 -14.754526 3.778529 1.530458 -66.578740 -11.312104 81.596352 -21.419703 -23.064738 0.000000 0.000000 0.000000 3.242520 3.924108 2.859360 32.360799 43.427175 10.542866 -77.806057 36.666711 -16.771737 0.000000 0.000000 0.000000 
-0.156599 0.936256 -0.021969 0.783993 30.505057 9.064989 8.671841 -1.330256 -13.871224 -0.866041 -0.466501 8.605898 0.335568 0.514116 0.056536 0.000000 0.000000 0.000000 -3.553671 0.416507 -14.106903 -3.152866 0.601261 8.465055 -4.182658 -10.113348 3.110423 0.000000 0.000000 0.000000 2.664828 -0.046047 -1.631695 -3.587046 1.958475 -7.829946 -10.419405 9.073212 -1.553403 9.022522 -0.719331 -19.550908 0.000000 0.000000 0.000000 0.690960 -15.248410 4.101678 4.739686 -65.789788 -13.240750 78.920733 -18.158247 -19.518577 0.000000 0.000000 0.000000 1.185053 5.353849 3.022007 29.452185 48.369378 11.687979 -77.066716 30.325837 -12.173499 0.000000 0.000000 0.000000 
